HIERARCHY
ROOT root
{
	OFFSET	0	13.1	24.9
	CHANNELS 6  Xposition Yposition Zposition Xrotation Yrotation Zrotation
	JOINT spine_1
	{
		OFFSET	0	9.99999	0
		CHANNELS 3  Xrotation Yrotation Zrotation
		JOINT spine_2
		{
			OFFSET	0	112	-10
			CHANNELS 3  Xrotation Yrotation Zrotation
			JOINT spine_3
			{
				OFFSET	0	206.5	19.3
				CHANNELS 3  Xrotation Yrotation Zrotation
				JOINT spine_4
				{
					OFFSET	0	110.4	14.6
					CHANNELS 3  Xrotation Yrotation Zrotation
					JOINT neck_1
					{
						OFFSET	0	71.8	-50.3
						CHANNELS 3  Xrotation Yrotation Zrotation
						JOINT neck_2
						{
							OFFSET	0	86.2	-25.8
							CHANNELS 3  Xrotation Yrotation Zrotation
							JOINT head_ee
							{
								OFFSET	0	179.8	-8.7
								CHANNELS 3  Xrotation Yrotation Zrotation
								End Site
								{
									OFFSET	1	0	0
								}
							}
						}
					}
					JOINT left_clavicle
					{
						OFFSET	-43.2	22.4	-70.8
						CHANNELS 3  Xrotation Yrotation Zrotation
						JOINT left_shoulder
						{
							OFFSET	-93.9	-5.79999	48.7
							CHANNELS 3  Xrotation Yrotation Zrotation
							JOINT left_elbow
							{
								OFFSET	-291.4	-30.8	15.2
								CHANNELS 3  Xrotation Yrotation Zrotation
								JOINT left_lowarm_twist
								{
									OFFSET	-110.7	-3.89999	13.6
									CHANNELS 3  Xrotation Yrotation Zrotation
									JOINT left_hand
									{
										OFFSET	-110.7	-3.89999	13.6
										CHANNELS 3  Xrotation Yrotation Zrotation
										JOINT left_ee
										{
											OFFSET	-80.8	-5.10001	12.1
											CHANNELS 3  Xrotation Yrotation Zrotation
											End Site
											{
												OFFSET	1	0	0
											}
										}
									}
								}
							}
						}
					}
					JOINT right_clavicle
					{
						OFFSET	43.2	22.4	-70.8
						CHANNELS 3  Xrotation Yrotation Zrotation
						JOINT right_shoulder
						{
							OFFSET	93.9	-5.79999	48.7
							CHANNELS 3  Xrotation Yrotation Zrotation
							JOINT right_elbow
							{
								OFFSET	291.4	-30.8	15.2
								CHANNELS 3  Xrotation Yrotation Zrotation
								JOINT right_lowarm_twist
								{
									OFFSET	110.7	-3.89999	13.6
									CHANNELS 3  Xrotation Yrotation Zrotation
									JOINT right_hand
									{
										OFFSET	110.7	-3.89999	13.6
										CHANNELS 3  Xrotation Yrotation Zrotation
										JOINT right_ee
										{
											OFFSET	80.8	-5.10001	12.1
											CHANNELS 3  Xrotation Yrotation Zrotation
											End Site
											{
												OFFSET	1	0	0
											}
										}
									}
								}
							}
						}
					}
				}
			}
		}
	}
	JOINT left_hip
	{
		OFFSET	-82.8	-127.5	0.300001
		CHANNELS 3  Xrotation Yrotation Zrotation
		JOINT left_knee
		{
			OFFSET	-28.2	-396.7	2.2
			CHANNELS 3  Xrotation Yrotation Zrotation
			JOINT left_ankle
			{
				OFFSET	-11.7	-411.3	35.4
				CHANNELS 3  Xrotation Yrotation Zrotation
				JOINT left_toes
				{
					OFFSET	0	-60	-88.6
					CHANNELS 3  Xrotation Yrotation Zrotation
					JOINT left_foot_ee
					{
						OFFSET	-22.5	-16.5	-42.2
						CHANNELS 3  Xrotation Yrotation Zrotation
						End Site
						{
							OFFSET	1	0	0
						}
					}
				}
			}
		}
	}
	JOINT right_hip
	{
		OFFSET	82.8	-127.5	0.300001
		CHANNELS 3  Xrotation Yrotation Zrotation
		JOINT right_knee
		{
			OFFSET	28.2	-396.7	2.2
			CHANNELS 3  Xrotation Yrotation Zrotation
			JOINT right_ankle
			{
				OFFSET	11.7	-411.3	35.4
				CHANNELS 3  Xrotation Yrotation Zrotation
				JOINT right_toes
				{
					OFFSET	0	-60	-88.6
					CHANNELS 3  Xrotation Yrotation Zrotation
					JOINT right_foot_ee
					{
						OFFSET	22.5	-16.5	-42.2
						CHANNELS 3  Xrotation Yrotation Zrotation
						End Site
						{
							OFFSET	1	0	0
						}
					}
				}
			}
		}
	}
}
MOTION
Frames: 9
Frame Time: 0.02
3452.46158598 718.637 -1532.88891203 -5.65245817708 68.0463514297 -3.24326175139 2.07287 0.832704 2.2177 2.07534 0.689936 2.26616 2.10281 0.28507 2.3516 2.09569 0.652788 2.27714 -8.16459 14.5174 0.423037 -8.26284 26.8556 3.68926 -0.0 0.0 -0.0 -4.60156 23.6534 -3.56059 -16.8005 -20.6244 67.7035 1.77952 -41.3931 0.672347 8.84668 0.226675 -1.10622 0.725466 -4.73349 2.88389 -0.0 0.0 -0.0 13.7238 25.7627 -27.386 -4.69715 12.7365 -62.0314 0.361794 10.161 -0.0321652 18.8015 -0.274962 2.37522 0.114433 7.10001 2.24058 0.0 0.0 0.0 9.44613 18.0932 2.93182 -28.5936 0.095359 4.34171 40.263 12.2099 -4.91981 -30.5233 0.0 0.0 -0.0 0.0 -0.0 0.670554 0.00620651 10.465 -20.1527 -0.293792 -3.06272 38.426 20.4281 5.22736 -12.7543 0.0 0.0 0.0 0.0 0.0 
3445.74817761 718.425 -1530.50689775 -6.28656926766 69.6000170671 -2.69882179759 2.18393 0.943316 2.16186 2.18617 0.803875 2.21747 2.21745 0.410487 2.32264 2.21075 0.772063 2.22874 -8.75203 14.2054 1.49262 -8.88192 25.6057 4.79955 -0.0 0.0 -0.0 -4.47875 23.9911 -3.30855 -18.6533 -20.3539 67.8267 1.57081 -37.8849 0.539138 8.65636 0.223607 -1.08211 0.766395 -5.1801 2.97228 -0.0 0.0 -0.0 13.8005 26.41 -27.4857 -2.77117 13.6602 -61.3359 0.419825 11.7485 -0.0431942 18.5414 -0.276508 2.34204 0.148373 8.00864 2.39851 0.0 0.0 0.0 12.3197 16.9748 1.86113 -34.8532 -0.172204 5.26451 40.8375 12.1037 -4.96885 -29.5852 0.0 0.0 -0.0 0.0 -0.0 0.583856 -2.33329 10.6569 -19.5253 -0.300984 -2.96672 38.9847 18.8439 5.21339 -12.0446 0.0 0.0 0.0 0.0 0.0 
3442.26956017 718.773 -1529.55084141 -7.55273108941 71.7138122309 -1.26366460761 2.21502 0.92895 2.18168 2.21732 0.788278 2.23633 2.24822 0.393122 2.33833 2.24139 0.757393 2.24698 -9.67259 13.6878 1.91469 -9.84811 24.4653 5.28405 -0.0 0.0 -0.0 -4.39528 23.9864 -3.19532 -20.4989 -19.9857 68.0995 1.36203 -34.0062 0.416514 9.00129 0.229109 -1.12582 0.759379 -5.27415 2.88534 -0.0 0.0 -0.0 13.802 26.9886 -27.4152 -0.275684 14.9224 -61.6924 0.577064 15.9533 -0.0808619 17.5501 -0.281021 2.2155 0.237844 9.36985 2.3746 0.0 0.0 0.0 17.7402 13.5948 0.79687 -40.6887 -0.511163 6.09441 40.5163 12.2895 -4.9429 -29.6492 0.0 0.0 -0.0 0.0 -0.0 0.528207 -2.76912 10.5579 -18.9247 -0.306885 -2.87475 38.8074 16.8533 5.12181 -11.1608 0.0 0.0 0.0 0.0 0.0 
3434.83459928 718.187 -1521.32218719 -9.5873776896 75.2873180807 0.855968959543 2.24187 0.806627 2.26201 2.24447 0.661095 2.30872 2.27113 0.256259 2.38775 2.26372 0.630043 2.31738 -9.85702 12.8682 1.35627 -10.0294 23.317 4.56745 -0.0 0.0 -0.0 -4.7189 23.9466 -3.64922 -22.857 -19.948 68.8391 1.35704 -33.9087 0.413723 9.63025 0.238465 -1.20562 0.535298 -4.65601 1.63428 -0.0 0.0 -0.0 13.5587 27.0918 -26.8363 2.44471 16.0571 -61.9868 0.657593 18.0432 -0.104408 16.7447 -0.283076 2.11266 0.397471 12.4472 2.61332 0.0 0.0 0.0 22.2156 9.08832 1.49923 -45.2531 -0.834329 6.71746 39.2475 13.6249 -4.8457 -29.8294 0.0 0.0 -0.0 0.0 -0.0 1.60471 -5.81004 10.7181 -19.2246 -0.304059 -2.92068 38.8646 14.7391 5.05594 -9.49769 0.0 0.0 0.0 0.0 0.0 
3431.59877697 721.179 -1518.79308946 -14.3605631509 78.7238218947 5.83767535826 2.23442 0.765567 2.30192 2.23715 0.61758 2.34594 2.26243 0.206611 2.41702 2.25475 0.585635 2.35411 -10.3637 12.4121 1.3655 -10.5517 22.5062 4.55791 -0.0 0.0 -0.0 -4.96559 24.1602 -3.93324 -24.3068 -18.8308 69.6436 1.1462 -29.5867 0.302706 9.82154 0.241137 -1.22991 0.598427 -4.28049 2.21767 -0.0 0.0 -0.0 13.4366 27.2957 -26.5268 4.94601 17.1385 -62.0451 0.746872 20.3034 -0.133735 16.7574 -0.283054 2.11428 0.42013 12.1276 2.3235 0.0 0.0 0.0 26.2087 7.30637 0.849231 -46.7284 -0.949319 6.9132 38.4525 11.97 -4.75461 -30.0481 0.0 0.0 -0.0 0.0 -0.0 0.639334 -4.06951 10.3102 -18.7369 -0.308531 -2.84598 38.8958 14.9758 5.06628 -9.48761 0.0 0.0 0.0 0.0 0.0 
3424.47708964 721.842 -1514.26978418 -20.4422562173 81.7236350005 12.12794544 2.23183 0.5511 2.47586 2.23516 0.392489 2.50588 2.25214 -0.0432271 2.53605 2.24334 0.357708 2.51108 -8.94438 11.6892 -0.158416 -9.04764 22.0324 2.60769 -0.0 0.0 -0.0 -5.27428 23.9406 -4.41584 -26.6624 -19.6218 70.5377 1.08947 -28.3545 0.275225 9.46563 0.236101 -1.18472 0.400608 -1.4883 2.0567 -0.0 0.0 -0.0 13.2489 26.4908 -26.1938 7.42595 18.1949 -61.8664 0.842972 22.6644 -0.168938 14.3609 -0.280683 1.80822 0.800003 14.158 0.641005 0.0 0.0 0.0 29.0508 4.57439 0.97722 -46.2052 -0.907964 6.84412 39.5663 10.537 -4.84233 -32.0648 0.0 0.0 -0.0 0.0 -0.0 0.775141 -7.21064 9.87648 -18.2759 -0.312173 -2.77535 37.7461 13.4181 4.91356 -9.19511 0.0 0.0 0.0 0.0 0.0 
3420.07531978 721.278 -1511.92833983 -35.1195698766 82.675802611 27.1783115875 2.53948 0.577724 2.46122 2.54275 0.419989 2.49297 2.56056 -0.000273795 2.52808 2.55186 0.398866 2.49643 -8.91673 11.3416 -0.565865 -9.01243 21.6572 2.11796 -0.0 0.0 -0.0 -4.71981 23.203 -3.83716 -28.2887 -20.6853 69.1867 0.920988 -24.5236 0.200169 9.97496 0.243221 -1.24939 0.38008 -1.60426 1.87059 -0.0 0.0 -0.0 13.1443 26.97 -25.8924 8.91165 19.1358 -61.0669 0.967347 25.6031 -0.219808 14.6185 -0.281552 1.84111 0.714702 13.5427 0.948271 0.0 0.0 0.0 32.4492 1.79419 1.25618 -43.2808 -0.688575 6.45135 38.4906 10.5206 -4.74538 -34.2137 0.0 0.0 -0.0 0.0 -0.0 1.21966 -9.33705 9.55323 -15.7473 -0.322038 -2.38754 38.5097 16.6866 5.08855 -8.58698 0.0 0.0 0.0 0.0 0.0 
3412.94681909 722.724 -1511.13272581 -37.8879503901 83.3276391298 29.7997540942 2.497 0.530554 2.51145 2.50044 0.369721 2.54009 2.51635 -0.059711 2.56615 2.50733 0.34618 2.54341 -9.30522 10.7483 -1.23546 -9.40873 21.0288 1.3898 -0.0 0.0 -0.0 -4.57534 23.1799 -3.64104 -29.5055 -19.9833 69.5145 0.886079 -23.6982 0.185908 9.7906 0.24071 -1.22598 0.34693 -1.39112 1.7374 -0.0 0.0 -0.0 13.0888 26.3403 -25.8417 11.2975 20.0013 -61.073 1.10319 28.6553 -0.281776 14.1551 -0.279882 1.78195 0.672232 15.7337 2.18125 0.0 0.0 0.0 34.3048 0.288858 1.47724 -45.4856 -0.852112 6.7485 40.7916 8.76994 -4.93699 -31.3867 0.0 0.0 -0.0 0.0 -0.0 0.881894 -10.1499 9.55642 -16.4871 -0.320923 -2.50105 39.0627 11.1062 4.97122 -8.45789 0.0 0.0 0.0 0.0 0.0 
3412.9400691 722.724 -1511.10277164 -37.9438159554 83.3360240714 29.8560001462 2.497 0.530554 2.51145 2.50044 0.369721 2.54009 2.51635 -0.059711 2.56615 2.50733 0.34618 2.54341 -9.30522 10.7483 -1.23546 -9.40873 21.0288 1.3898 -0.0 0.0 -0.0 -4.57534 23.1799 -3.64104 -29.5055 -19.9833 69.5145 0.886079 -23.6982 0.185908 9.7906 0.24071 -1.22598 0.34693 -1.39112 1.7374 -0.0 0.0 -0.0 13.0888 26.3403 -25.8417 11.2975 20.0013 -61.073 1.10319 28.6553 -0.281776 14.1551 -0.279882 1.78195 0.672232 15.7337 2.18125 0.0 0.0 0.0 34.3048 0.288858 1.47724 -45.4856 -0.852112 6.7485 40.7916 8.76994 -4.93699 -31.3867 0.0 0.0 -0.0 0.0 -0.0 0.881894 -10.1499 9.55642 -16.4871 -0.320923 -2.50105 39.0627 11.1062 4.97122 -8.45789 0.0 0.0 0.0 0.0 0.0 
